PathFileType	4	(X/Y/Z)	Patient4_TMGait_0pt5_02_left_03.trc.trc
DataRate	CameraRate	NumFrames	NumMarkers	Units	OrigDataRate	OrigDataStartFrame	OrigNumFrames
79.096045197740	79.096045197740	5	33	mm	79.096045197740	53	       141
Frame#	Time	Sacral			L.Shoulder			Chest			R.Shoulder			Neck			R.ASIS			L.ASIS			R.Thigh.Superior			R.Thigh.Lateral			R.Thigh.Inferior			R.Patella			L.Thigh.Superior			L.Thigh.Lateral			L.Thigh.Inferior			L.Patella			L.Shank.Superior			L.Shank.Lateral			L.Shank.Inferior			R.Shank.Superior			R.Shank.Lateral			R.Shank.Inferior			R.Heel			R.Midfoot.Superior			R.Midfoot.Lateral			R.Toe			L.Heel			L.Midfoot.Lateral			L.Midfoot.Superior			L.Toe			L.Elbow			L.Wrist			R.Elbow			R.Wrist			
		X1	Y1	Z1	X2	Y2	Z2	X3	Y3	Z3	X4	Y4	Z4	X5	Y5	Z5	X6	Y6	Z6	X7	Y7	Z7	X8	Y8	Z8	X9	Y9	Z9	X10	Y10	Z10	X11	Y11	Z11	X12	Y12	Z12	X13	Y13	Z13	X14	Y14	Z14	X15	Y15	Z15	X16	Y16	Z16	X17	Y17	Z17	X18	Y18	Z18	X19	Y19	Z19	X20	Y20	Z20	X21	Y21	Z21	X22	Y22	Z22	X23	Y23	Z23	X24	Y24	Z24	X25	Y25	Z25	X26	Y26	Z26	X27	Y27	Z27	X28	Y28	Z28	X29	Y29	Z29	X30	Y30	Z30	X31	Y31	Z31	X32	Y32	Z32	X33	Y33	Z33	

53	3.847428571429	551.190517573200	1012.294202680991	456.228185351728	748.845422908967	1436.330408116986	280.073719367089	847.156176541589	1359.907393341747	441.135246314383	764.395214129636	1436.408948241016	615.543819307689	749.742577306086	1494.806464409586	432.069111121588	772.543607121212	941.431893623094	574.544294653830	765.786186844933	958.832528936109	301.044342831215	844.571631993201	762.122635492337	548.931849805240	793.049183754764	645.300177139191	620.534885942635	882.231488518585	599.778213855896	543.812504619975	892.312797426373	485.699646696294	566.198373993800	815.410254440327	750.981142380523	335.045921747154	728.825047919075	634.049015821331	279.627083189290	811.840120308453	557.703497355161	346.649291319337	812.337356025881	486.447686978741	358.821457063126	782.652283122064	414.724392695108	351.662111173135	692.248434414449	302.292500428188	299.572707549371	734.869129547209	191.358571499450	374.772775813602	812.634414313363	415.587786408840	571.862988328665	687.922919683951	382.039644900849	628.418685798579	670.519967085214	273.144624281284	580.284095673092	468.822377165319	222.993112397553	543.691994515993	630.588299747622	155.346590369765	595.712410208617	520.283796326548	165.338687568166	623.941092339712	685.504392469938	41.154105013447	635.131081833172	599.129668863806	38.068979547150	413.303994528203	675.925161812197	35.427785740492	335.394693701254	758.865779390205	95.353354951103	365.053823858796	887.814883466609	41.859683790312	340.765359175430	705.780340065786	1089.031189443168	146.927930808704	836.486564735126	861.191526528381	150.087733976112	735.253178698334	1086.193210964474	722.788155638404	893.645719928426	882.267839631041	702.629916460398	
54	3.860071428571	550.620613324118	1012.815955064373	454.881271016723	750.480226927125	1436.974684605030	280.027209608011	847.295362236231	1360.062869869477	441.742320166512	763.312111249021	1436.355553356467	615.647224332833	750.251037141521	1495.212019734943	432.126555929393	771.485255457839	942.333674989051	574.465772805332	765.988456559157	959.143345706613	300.817094080554	846.022756001013	765.389520605463	548.742894949951	796.837343536698	648.024864168646	620.611832929022	886.533632027731	603.905246671142	543.631178767973	899.014048948744	490.294852523707	566.236306615620	813.591439021594	750.171312908791	335.154428952877	726.046280370379	634.049463647479	279.373861580355	807.956061434525	556.952091622899	346.764802673832	807.710894070833	485.801597888544	358.999914679872	777.818055411666	414.340007989818	351.689415833547	687.063543334701	302.262919863747	299.490334928599	729.070912955940	191.211897881904	374.818397520813	821.180691467467	418.456951602488	572.102351610703	697.667916956432	381.313229797022	628.755088129132	683.268656590545	271.988759630383	580.800459003586	483.036731688599	215.555047544405	544.608452412555	647.113210007146	153.405287125446	596.521566525424	536.532116041515	159.597162964483	624.753976192821	705.582938946231	40.957934041353	635.394655561028	592.732873898405	38.122453255470	413.300921028494	669.585280572873	35.444958619887	335.389728866950	752.556228517355	95.334464023502	365.065564013515	881.479733736335	41.723581284110	340.762523203557	713.174931821470	1089.711136107529	145.092913988058	852.675191977993	867.225307845477	148.765128159985	727.935649202761	1086.261484978629	721.959990801746	870.678669330493	869.745883890738	706.335278655051	
55	3.872714285714	549.996524886248	1013.390028532691	453.580649464291	752.206192841215	1437.579827409123	280.106212062968	847.472791897599	1360.183906267204	442.488296128592	762.252612135111	1436.298281790390	615.872494324097	750.782246436076	1495.590050515418	432.304616845781	770.407162940354	943.174234288030	574.547937622295	766.303321630619	959.439903075992	300.745350588171	847.214635638500	768.484509125984	548.706837208461	800.172762453394	650.629717351107	620.802113211855	890.233342424184	607.765528676340	543.543525495544	905.043487321939	494.852018321144	566.392682463760	811.718407795103	749.341705463914	335.434369998675	723.233849637268	634.065161795806	279.170781067316	803.989282098541	556.206325606249	346.941236613763	802.982248594993	485.169308097214	359.211663294439	772.915091912353	413.971217092061	351.737500050083	681.831892928921	302.230392483564	299.421444790261	723.245343093282	191.073064076434	374.873668894627	829.431149433101	421.149206308221	572.462462460847	707.518741703224	379.759901316552	629.345051187747	696.669109958103	270.052134482790	581.512345424401	498.358974791980	206.355879424245	545.959879408564	665.008774163591	150.643923526617	597.566326425351	554.243592147498	152.375723970283	625.889997691541	727.599670965289	40.299980303488	635.607846259470	586.338935966361	38.169120263317	413.310477422093	663.248167282355	35.461819288067	335.388047439068	746.248076701347	95.318172577455	365.078747563912	875.147030993436	41.595548277464	340.764260820857	720.366804684467	1090.502079425077	143.515228592930	868.604571959786	873.836823274971	147.710696155325	720.562187727073	1086.526438598914	721.262046992292	847.211788900619	859.066842929687	709.924814218326	
56	3.885357142857	549.331062419273	1013.998781640692	452.336051739931	753.994289017524	1438.124866702125	280.313902495305	847.687401084141	1360.257317274097	443.365185678400	761.235239132585	1436.225257496063	616.222844911422	751.340952688208	1495.923499831777	432.604334964279	769.328914870475	943.926539737618	574.773694673711	766.745946043386	959.715849395851	300.812333977577	848.124090904808	771.338570957692	548.788903637255	803.015135648664	653.044004897084	621.096104656578	893.284923369394	611.262713850699	543.547761744669	910.340356085723	499.282309538762	566.660204637192	809.824145542720	748.489358332554	335.856557486496	720.411527829343	634.083134511953	279.022440058548	799.975755120922	555.460725599370	347.166437684892	798.192013095191	484.543687716316	359.451227767599	767.974375031527	413.608716447684	351.806196796011	676.575432106722	302.192250823958	299.366820384976	717.401844885638	190.935681559614	374.941596274150	837.313866385875	423.629447070981	572.935694990989	717.445438332269	377.446883068852	630.186963148705	710.652628060979	267.451821538636	582.409971154036	514.824650110535	195.660573353533	547.710191887069	684.133684686058	147.222575902670	598.799379145531	573.368630096104	143.949717761771	627.324493961537	751.304913595885	39.372406783224	635.795716329842	579.952271450771	38.208903525843	413.329012791450	656.912827661544	35.478181843956	335.389207018643	739.941233321663	95.303963057741	365.094575581810	868.816791806301	41.476687698693	340.769733891210	727.336302156999	1091.364527780999	142.187670629937	884.208973804844	880.989127932613	146.924110859238	713.070192412416	1086.986016686891	720.686700432153	823.548451807718	850.309211540570	713.349683168432	
57	3.898000000000	548.647901762399	1014.621178237302	451.165326820457	755.815927736356	1438.592246404991	280.652262841586	847.938550850330	1360.272526068503	444.363765556482	760.279050178177	1436.127924725432	616.698922132473	751.933162767602	1496.197543039003	433.024113858499	768.276415272405	944.568534806239	575.128973823571	767.318614100047	959.962482786942	301.001762417386	848.727279933674	773.878311569077	548.968080899932	805.307273211572	655.194705256629	621.486584436894	895.640463285285	614.304306396947	543.654300901177	914.840429484424	503.498906905509	567.032516747560	807.938733453744	747.611604921952	336.394607659784	717.599795496453	634.091356461631	278.933786657515	795.946676335634	554.709179391913	347.432523342279	793.375606745172	483.916461528686	359.715863432828	763.021962268477	413.243033252903	351.897725459133	671.312830638315	302.146495627567	299.328677152135	711.547504693944	190.793756510703	375.026042870605	844.751583193231	425.870832522069	573.514779903341	727.412923708909	374.457609967963	631.272453262813	725.139264365990	264.327060257568	583.479089696907	532.460184337319	183.750653047998	549.805103319680	704.334294710060	143.331936179943	600.164974312373	593.846608377409	134.619562267148	629.017569555292	776.441046612464	38.426888380572	635.985753633619	573.575957028330	38.243561012065	413.351450320953	650.577800855649	35.494021195568	335.392840573496	733.635106298899	95.291220663026	365.114495220825	862.488285787898	41.367934403495	340.778377070992	734.072718767100	1092.261249245483	141.101911818401	899.425588023747	888.639904937016	146.411031910127	705.408960750233	1087.647104545539	720.231203709524	799.984543513715	843.475111818336	716.575699606473	
